<svg width="13" height="11" viewBox="0 0 13 11" fill="none" xmlns="http://www.w3.org/2000/svg">
    <path d="M5.84335 0.149802L0.846569 3.42322C0.541703 3.62294 0.541703 3.94685 0.846569 4.14657C1.1515 4.34633 1.6458 4.34633 1.95073 4.14657L5.61468 1.74629L5.61468 10.4885C5.61468 10.771 5.96427 11 6.39543 11C6.82653 11 7.17618 10.771 7.17618 10.4885L7.17618 1.74629L10.8401 4.14648C11.1451 4.34624 11.6394 4.34624 11.9443 4.14648C12.0966 4.04664 12.173 3.91571 12.173 3.78481C12.173 3.65392 12.0966 3.52302 11.9443 3.42314L6.94751 0.149802C6.64258 -0.0499584 6.14828 -0.0499584 5.84335 0.149802Z"
          fill="#000000" fill-opacity="1"/>
</svg>
